<svg xmlns="http://www.w3.org/2000/svg" viewBox="0 0 320 320" role="img" aria-labelledby="title desc">
  <title id="title">Phoenix Key Monochrome Mark</title>
  <desc id="desc">Monochrome adaptable logo for Phoenix Key with stylized phoenix and keyhole.</desc>
  <defs>
    <style>
      :root { color: #11171f; }
      .ring { fill: none; stroke: #11171f; stroke-width: 18; }
      .phoenix { fill: #11171f; }
    </style>
  </defs>
  <circle cx="160" cy="160" r="140" class="ring" />
  <path class="phoenix" d="M160 76c34 18 60 58 60 102 0 38-20 72-60 102-40-30-60-64-60-102 0-44 26-84 60-102zm0 26c-18 14-30 38-30 62 0 18 8 40 30 62 22-22 30-44 30-62 0-24-12-48-30-62zm0 64c8 0 14-6 14-14s-6-14-14-14-14 6-14 14 6 14 14 14zm0 22c-30 0-54 24-54 54 0 20 12 38 30 46v28h48v-28c18-8 30-26 30-46 0-30-24-54-54-54zm0 26c16 0 28 12 28 28s-12 28-28 28-28-12-28-28 12-28 28-28z" />
</svg>
